<?xml version="1.0" encoding="utf-8"?>
<!-- Generator: Adobe Illustrator 22.1.0, SVG Export Plug-In . SVG Version: 6.00 Build 0)  -->
<svg version="1.1" id="Layer_1" xmlns="http://www.w3.org/2000/svg" xmlns:xlink="http://www.w3.org/1999/xlink" x="0px" y="0px"
	 viewBox="0 0 70 70" style="enable-background:new 0 0 70 70;" xml:space="preserve">
<style type="text/css">
	.st0{fill:#E50A22;}
</style>
<g transform="translate(0 1)">
	<path class="st0" d="M58,65h-4c-2.2,0-4-1.8-4-4v-6H20v6c0,2.2-1.8,4-4,4h-4c-2.2,0-4-1.8-4-4v-6H5c-0.6,0-1-0.4-1-1V38.2
		c0-1.5,0.5-3,1.6-4.2l2-2c1.3-1.3,3-3,5.4-3h44c2.4,0,4.1,1.7,5.4,3l2,2c1.1,1.2,1.6,2.7,1.6,4.2V54c0,0.6-0.4,1-1,1h-3v6
		C62,63.2,60.2,65,58,65z M52,55v6c0,1.1,0.9,2,2,2h4c1.1,0,2-0.9,2-2v-6H52z M10,55v6c0,1.1,0.9,2,2,2h4c1.1,0,2-0.9,2-2v-6H10z
		 M6,53h58V38.2c0-1.1-0.3-2.1-1-2.8l-2-2c-1.1-1.1-2.4-2.4-4-2.4H13c-1.6,0-2.9,1.3-4,2.4l-2,2c-0.7,0.7-1,1.7-1,2.8V53z"/>
	<path class="st0" d="M21,47h-6c-1.7,0-3-1.3-3-3v-2c0-1.7,1.3-3,3-3h6c1.7,0,3,1.3,3,3v2C24,45.7,22.7,47,21,47z M15,41
		c-0.6,0-1,0.4-1,1v2c0,0.6,0.4,1,1,1h6c0.6,0,1-0.4,1-1v-2c0-0.6-0.4-1-1-1H15z"/>
	<path class="st0" d="M55,47h-6c-1.7,0-3-1.3-3-3v-2c0-1.7,1.3-3,3-3h6c1.7,0,3,1.3,3,3v2C58,45.7,56.7,47,55,47z M49,41
		c-0.6,0-1,0.4-1,1v2c0,0.6,0.4,1,1,1h6c0.6,0,1-0.4,1-1v-2c0-0.6-0.4-1-1-1H49z"/>
	<path class="st0" d="M39,45h-8c-0.6,0-1-0.4-1-1s0.4-1,1-1h8c0.6,0,1,0.4,1,1S39.6,45,39,45z M59,31.5c-0.5,0-0.9-0.4-1-0.9
		c0-0.1-1-10.2-1.4-13.2c-0.2-2.4-2.1-4.3-4.5-4.4h-9c0,0,0,0-0.1,0H27l0,0h-9.1c-2.4,0.1-4.3,2-4.5,4.4C13,20.4,12,30.5,12,30.6
		c-0.1,0.5-0.5,1-1.1,0.9C10.4,31.4,10,31,10,30.4c0-0.4,1-10.2,1.4-13.2c0.2-3.4,3-6.1,6.5-6.2H26V4c0-0.6,0.4-1,1-1h16
		c0.6,0,1,0.4,1,1v7h8.1c3.5,0.1,6.3,2.8,6.5,6.2C59,20.2,60,30,60,30.4C60,31,59.6,31.4,59,31.5C59.1,31.5,59,31.5,59,31.5z M28,5
		v6h14V5H28z"/>
</g>
</svg>
