<?xml version="1.0" encoding="utf-8"?>
<!-- Generator: Adobe Illustrator 23.0.3, SVG Export Plug-In . SVG Version: 6.00 Build 0)  -->
<svg version="1.1" id="Layer_1" xmlns="http://www.w3.org/2000/svg" xmlns:xlink="http://www.w3.org/1999/xlink" x="0px" y="0px"
	 viewBox="0 0 118 118" style="enable-background:new 0 0 118 118;" xml:space="preserve">
<style type="text/css">
	.st0{fill:#FB0006;stroke:#FB0006;}
</style>
<g id="Group_45" transform="translate(-11.599 -9.485)">
	<path id="Path_74" class="st0" d="M59,50.3c-0.8-0.1-1.6-0.2-2.4-0.3c-0.7-0.1-1.4,0.1-1.8,0.6c-0.4,0.4-0.7,0.8-1.1,1.1L53,52.4
		c-0.3,0.3-0.4,0.8-0.3,1.2c0.1,0.5,0.4,0.9,0.8,1.1l1.2,0.7c1.5,0.9,3.1,1.7,4.6,2.6c0.6,1,1.1,2,1.6,2.9l1.7,3
		c0.2,0.4,0.6,0.6,1,0.7c0.1,0,0.1,0,0.2,0c0.4,0,0.7-0.1,1-0.4C64.9,64.1,65,64,65,64l0.5-0.5c0.4-0.4,0.8-0.8,1.1-1.1
		c0.5-0.4,0.7-1.1,0.6-1.7l-0.3-2c-0.1-0.7-0.2-1.3-0.3-2c1.7-1.7,2.9-2.9,4.5-4.5l0.5-0.5l8.1,12.1c0.4,0.6,1.3,0.8,1.9,0.4
		c0.1-0.1,0.1-0.1,0.2-0.2l2.3-2.3c0.3-0.3,0.5-0.9,0.4-1.3l-4.4-17.2c1.6-1.6,3-3,4.4-4.4l1.9-1.9c0.6-0.6,1.1-1.4,1.3-2.3
		c0.6-2.3-0.8-4.7-3.2-5.3c-0.4-0.1-0.9-0.1-1.4-0.1c-1.1,0.1-2.2,0.6-3,1.4L74,37c-2.7-0.7-11.8-2.9-17.2-4.4c-0.5-0.1-1,0-1.3,0.4
		l-2.3,2.3c-0.5,0.5-0.5,1.4,0,2c0.1,0.1,0.1,0.1,0.2,0.2l12.1,8.1l-5,5L59,50.3z M62.2,52.7l6.3-6.3c0.1-0.1,0.2-0.2,0.3-0.3
		c0.5-0.6,0.4-1.5-0.1-2c0,0-0.1-0.1-0.1-0.1l-12.1-8l0.5-0.5c5.8,1.6,15.1,3.9,16.9,4.3c0.7,0.2,1.4,0,1.9-0.5l6.6-6.6
		c0.3-0.3,0.8-0.6,1.2-0.6c0.5,0,1,0.2,1.3,0.5c0.3,0.4,0.4,0.9,0.3,1.4c-0.1,0.4-0.3,0.7-0.6,1l-1.9,1.9c-1.6,1.6-2.9,2.9-4.7,4.7
		c-0.5,0.5-0.7,1.3-0.6,2l4.3,16.9l-0.5,0.5l-8.1-12.1c-0.4-0.6-1.3-0.8-1.9-0.4c-0.1,0.1-0.1,0.1-0.2,0.2l-1.7,1.7
		c-1.6,1.6-2.8,2.8-4.7,4.7c-0.5,0.5-0.7,1.1-0.6,1.8c0.1,0.8,0.2,1.5,0.3,2.3l0.2,1.6l-0.3,0.3l-0.8-1.4c-0.6-1-1.1-2.1-1.7-3.1
		c-0.2-0.4-0.5-0.7-0.9-0.9c-1.5-0.8-3-1.7-4.4-2.5l0.3-0.3c0.7,0.1,1.4,0.2,2,0.3l1.9,0.3C61.1,53.4,61.7,53.2,62.2,52.7z"/>
	<path id="Path_75" class="st0" d="M109.9,21.3H29.5c-0.8,0-1.4,0.6-1.4,1.4v48.5c0,0.8,0.6,1.4,1.4,1.4h80.4c0.8,0,1.4-0.6,1.4-1.4
		V22.7C111.3,21.9,110.6,21.3,109.9,21.3z M108.5,69.8H30.9V24.1h77.6V69.8z"/>
	<path id="Path_76" class="st0" d="M118.2,79.1V20.3c0-4.1-3.3-7.3-7.4-7.4H28.5c-4.1,0-7.3,3.3-7.4,7.4v58.8l-6.4,40
		c-0.4,2.5,1.3,4.9,3.8,5.3c0.2,0,0.5,0.1,0.7,0.1h101.1c2.6,0,4.6-2.1,4.6-4.6c0-0.3,0-0.5-0.1-0.8L118.2,79.1z M23.9,20.3
		c0-2.5,2-4.6,4.6-4.6h82.4c2.5,0,4.6,2,4.6,4.6v0v57.5H23.9V20.3z M121.8,121c-0.3,0.4-0.9,0.7-1.4,0.6H19.3c-1,0-1.8-0.8-1.8-1.8
		c0-0.1,0-0.2,0-0.3l6.2-38.9h92l6.5,38.9C122.3,120.1,122.1,120.6,121.8,121L121.8,121z"/>
	<path id="Path_77" class="st0" d="M109.9,86.6H29.5c-0.7,0-1.3,0.5-1.4,1.2l-2.9,23.7c-0.1,0.8,0.5,1.5,1.2,1.6c0.1,0,0.1,0,0.2,0
		H113c0.8,0,1.4-0.6,1.4-1.4c0-0.1,0-0.1,0-0.2l-3.1-23.7C111.2,87.1,110.6,86.6,109.9,86.6z M109.8,98.5H91.2l-0.9-9.1h18.3
		L109.8,98.5z M68.4,101.3v9.1H49.2l0.9-9.1H68.4z M50.4,98.5l0.9-9.1h17.1v9.1H50.4z M71.2,101.3h17.5l0.9,9.1H71.2V101.3z
		 M71.2,98.5v-9.1h16.4l0.9,9.1H71.2z M48.4,89.4l-0.9,9.1h-18l1.1-9.1H48.4z M29.3,101.3h18l-0.9,9.1H28.2L29.3,101.3z M92.4,110.3
		l-0.9-9.1h18.7l1.2,9.1H92.4z"/>
</g>
</svg>
