<?xml version="1.0" encoding="utf-8"?>
<!-- Generator: Adobe Illustrator 22.1.0, SVG Export Plug-In . SVG Version: 6.00 Build 0)  -->
<svg version="1.1" id="Layer_1" xmlns="http://www.w3.org/2000/svg" xmlns:xlink="http://www.w3.org/1999/xlink" x="0px" y="0px"
	 viewBox="0 0 70 70" style="enable-background:new 0 0 70 70;" xml:space="preserve">
<style type="text/css">
	.st0{fill:#E50A22;}
</style>
<g>
	<path class="st0" d="M51,65H11c-0.4,0-0.8-0.2-0.9-0.6c-0.2-0.4-0.1-0.8,0.2-1.1C15.5,58,22.7,55,30.1,55l0,0
		c2.2,0,4.3,0.3,6.3,0.7L44,21.8c0.1-0.5,0.5-0.8,1-0.8s0.9,0.4,1,0.8c2.3,14.4,0,25.7-7.1,34.5c7.6,2.3,12.5,6.7,12.7,6.9
		c0.3,0.3,0.4,0.7,0.3,1.1C51.8,64.7,51.4,65,51,65z M13.6,63h34.5c-3.3-2.3-9.9-6-18-6l0,0C24.1,57,18.2,59.2,13.6,63z M44.7,28
		l-5.5,24.7C43.5,45.9,45.4,37.8,44.7,28z"/>
	<path class="st0" d="M37,37c-0.1,0-0.1,0-0.2,0c-0.4-0.1-0.7-0.4-0.8-0.7c-1.8-7.2-0.2-11.4,1.1-13.5c-2.6-0.2-5.3-0.1-8,0.2
		c-0.4,0.1-0.7-0.1-1-0.4s-0.2-0.7-0.1-1c2.1-3.9,6.1-6.3,10.4-6.6l-4.2-4.2c-0.2-0.4-0.3-0.7-0.2-1.1c0.1-0.3,0.3-0.6,0.7-0.7
		c0.2-0.1,4.4-1.3,10,1.6c2.6-3.4,7.7-5.5,7.9-5.6c0.4-0.1,0.8-0.1,1,0.2c0.3,0.3,0.4,0.7,0.3,1c0,0-0.9,3.3-1.6,6.2
		c6.1-1.6,11.1,2.6,11.3,2.8s0.3,0.4,0.3,0.7s-0.1,0.5-0.2,0.7c-0.1,0.2-1.2,1.3-4.3,2c4.8,4.3,4.5,9.2,4.5,9.4
		c0,0.3-0.2,0.6-0.5,0.8c-0.3,0.2-0.6,0.2-0.9,0c-2.4-1.1-4.6-2.4-6.8-3.8c1.5,3.6,2.3,7.3,2.3,11c0,0.4-0.3,0.8-0.7,0.9
		c-0.4,0.1-0.8,0-1.1-0.3l-11-12.9c-3.2,5.6-6.8,12.1-7.3,12.8C37.6,36.8,37.3,37,37,37z M34.1,20.6c1.6,0,3.1,0.1,4.7,0.3
		c0.4,0.1,0.6,0.2,0.8,0.5c0.2,0.3,0.3,0.6,0.2,0.9c0,0.2-0.1,0.5-0.3,0.6c-0.8,0.8-3,3.9-2,10.3C38.8,31,41,27,43.9,21.8
		c0.2-0.3,0.4-0.5,0.8-0.6c0.3-0.1,0.7,0,0.9,0.1c0.1,0.1,0.3,0.2,0.3,0.3l9.8,11.5c-0.4-3.6-1.6-7.1-3.4-10.2
		c-0.3-0.4-0.2-1.1,0.3-1.5c0.4-0.3,0.9-0.3,1.3,0.1c2.4,1.8,5.1,3.4,7.8,4.8c-0.4-1.8-1.5-4.8-5.1-7.3c-0.5-0.3-0.6-1-0.3-1.6
		c0.2-0.3,0.5-0.5,0.9-0.5c1.9-0.2,3.1-0.6,3.9-1c-1.8-1.1-5.5-2.8-9.5-1.2c-0.2,0.1-0.6,0.1-0.9,0c-0.3-0.1-0.5-0.3-0.7-0.6
		c0.1-0.1,0-0.4,0.1-0.6c0.4-1.9,0.9-4,1.4-5.6c-1.7,0.9-4.2,2.5-5.5,4.5c-0.4,0.6-1.1,0.8-1.7,0.4c-3-1.7-5.5-2-7.1-2l4.3,4.3
		c0.4,0.4,0.5,1.1,0,1.6c-0.2,0.3-0.6,0.4-0.9,0.4c-3.7-0.4-7.2,1.1-9.5,3.8C32.1,20.7,33.1,20.6,34.1,20.6z M52.8,23.1L52.8,23.1
		L52.8,23.1z M54.1,21.8c0,0,0,0.1,0.1,0.1C54.1,21.9,54.1,21.8,54.1,21.8z M38,21.6L38,21.6L38,21.6z M57.5,18.9L57.5,18.9
		L57.5,18.9z M57.9,17.4L57.9,17.4L57.9,17.4z M40,16.4L40,16.4L40,16.4z M51,12.9C50.9,12.9,50.9,12.9,51,12.9
		C50.9,12.9,50.9,12.9,51,12.9z M44.3,11.2L44.3,11.2L44.3,11.2z M45.2,11L45.2,11L45.2,11z"/>
	<path class="st0" d="M15,39c-5,0-9-4-9-9s4-9,9-9s9,4,9,9S20,39,15,39z M15,23c-3.9,0-7,3.1-7,7s3.1,7,7,7s7-3.1,7-7S18.9,23,15,23
		z"/>
</g>
</svg>
