<?xml version="1.0" encoding="iso-8859-1"?>
<!-- Generator: Adobe Illustrator 19.0.0, SVG Export Plug-In . SVG Version: 6.00 Build 0)  -->
<svg version="1.1" id="Capa_1" xmlns="http://www.w3.org/2000/svg" xmlns:xlink="http://www.w3.org/1999/xlink" x="0px" y="0px"
	 viewBox="0 0 489.9 489.9" style="enable-background:new 0 0 489.9 489.9;" xml:space="preserve">
<g>
	<g>
		<g>
			<path d="M37.9,413.25h36.3h341.5H452c21,0,37.9-17,37.9-37.9v-23.3h-30.6h-1.6v-241c0-19-15.4-34.4-34.4-34.4H66.6
				c-19,0-34.4,15.4-34.4,34.4v241h-1.6H0v23.3C0,396.25,17,413.25,37.9,413.25z M79.1,123.55h331.8v228.5h-120v2.3
				c0,7.2-5.8,13-13,13H212c-7.2,0-13-5.8-13-13v-2.3H79.1V123.55z M341.3,239.65c0-53.1-43.2-96.3-96.3-96.3s-96.3,43.2-96.3,96.3
				s43.2,96.3,96.3,96.3C298.1,336.05,341.3,292.85,341.3,239.65z M273.4,305.65c5.9-8.2,11.5-18.5,15.4-31.1h18.9
				C300.1,288.25,288,299.25,273.4,305.65z M313.8,219.35c1.9,6.5,3,13.3,3,20.4c0,7.1-1,13.9-3,20.4h-21.6
				c1.1-6.3,1.7-13.1,1.7-20.4c0-7.3-0.6-14-1.7-20.4H313.8z M307.8,204.95h-18.9c-3.9-12.6-9.5-23-15.4-31.1
				C288,180.05,300.1,191.05,307.8,204.95z M252.2,171.05c7,7,15.7,18.2,21.4,33.9h-21.4V171.05z M252.2,219.35h25.3
				c1.2,6.2,1.9,13,1.9,20.4s-0.7,14.1-1.9,20.4h-25.4v-40.8H252.2z M252.2,274.45h21.4c-5.7,15.8-14.4,27-21.4,34V274.45z
				 M216.6,173.75c-5.9,8.2-11.5,18.5-15.4,31.1h-18.9C189.9,191.05,202,180.05,216.6,173.75z M176.2,260.05c-1.9-6.5-3-13.3-3-20.4
				s1-13.9,3-20.4h21.6c-1.1,6.3-1.7,13.1-1.7,20.4s0.6,14,1.7,20.4H176.2z M182.2,274.45h18.9c3.9,12.6,9.5,23,15.4,31.1
				C202,299.25,189.9,288.25,182.2,274.45z M237.8,308.35c-7-7-15.7-18.2-21.4-33.9h21.4V308.35z M237.8,260.05h-25.3
				c-1.2-6.2-1.9-13-1.9-20.4s0.7-14.1,1.9-20.4h25.4v40.8H237.8z M237.8,204.95h-21.4c5.7-15.8,14.4-27,21.4-34V204.95z"/>
		</g>
	</g>
</g>
<g>
</g>
<g>
</g>
<g>
</g>
<g>
</g>
<g>
</g>
<g>
</g>
<g>
</g>
<g>
</g>
<g>
</g>
<g>
</g>
<g>
</g>
<g>
</g>
<g>
</g>
<g>
</g>
<g>
</g>
</svg>
