<?xml version="1.0" encoding="utf-8"?>
<!-- Generator: Adobe Illustrator 23.0.3, SVG Export Plug-In . SVG Version: 6.00 Build 0)  -->
<svg version="1.1" id="Layer_1" xmlns="http://www.w3.org/2000/svg" xmlns:xlink="http://www.w3.org/1999/xlink" x="0px" y="0px"
	 viewBox="0 0 118 118" style="enable-background:new 0 0 118 118;" xml:space="preserve">
<style type="text/css">
	.st0{fill:#FB0006;stroke:#FB0006;}
</style>
<g id="Group_11" transform="translate(-14.7 -4.5)">
	<path id="Path_7" class="st0" d="M103.9,89.4c0,1-0.8,1.8-1.7,1.8c0,0-0.1,0-0.1,0H66c-1,0-1.8-0.8-1.8-1.8s0.8-1.8,1.8-1.8h36.1
		C103.1,87.5,103.9,88.3,103.9,89.4C103.9,89.3,103.9,89.4,103.9,89.4z M102.1,80.2H66c-1,0-1.8,0.8-1.8,1.8s0.8,1.8,1.8,1.8h36.1
		c1,0,1.8-0.8,1.8-1.8S103.1,80.2,102.1,80.2L102.1,80.2z M102.1,52H66c-1,0-1.8,0.8-1.8,1.8c0,1,0.8,1.8,1.8,1.8h36.1
		c1,0,1.8-0.8,1.8-1.8C103.9,52.8,103.1,52,102.1,52L102.1,52z M66,63.2h4.7c1,0,1.8-0.8,1.8-1.8c0-1-0.8-1.8-1.8-1.8H66
		c-1,0-1.8,0.8-1.8,1.8C64.2,62.4,65,63.2,66,63.2C66,63.2,66,63.2,66,63.2z M102.1,59.4H76.8c-1,0-1.8,0.8-1.8,1.8
		c0,1,0.8,1.8,1.8,1.8c0,0,0,0,0,0h25.3c1,0,1.8-0.8,1.8-1.8C103.9,60.2,103.1,59.4,102.1,59.4C102.1,59.4,102.1,59.4,102.1,59.4z
		 M102.1,31.3H66c-1,0-1.8,0.8-1.8,1.8c0,1,0.8,1.8,1.8,1.8h36.1c1,0,1.8-0.8,1.8-1.8C103.9,32.1,103.1,31.3,102.1,31.3L102.1,31.3z
		 M102.1,23.9h-4.7c-1,0-1.8,0.8-1.8,1.8c0,1,0.8,1.8,1.8,1.8h4.7c1,0,1.8-0.8,1.8-1.8C103.9,24.7,103.1,23.9,102.1,23.9L102.1,23.9
		z M66,27.6h25.3c1,0,1.8-0.8,1.8-1.8c0-1-0.8-1.8-1.8-1.8H66c-1,0-1.8,0.8-1.8,1.8C64.2,26.8,65,27.6,66,27.6L66,27.6z M53.5,80
		l-7.4,7.4l-2.9-2.9c-0.7-0.7-1.9-0.7-2.6,0s-0.7,1.9,0,2.6l4.2,4.2c0.7,0.7,1.9,0.7,2.6,0l8.7-8.7c0.7-0.7,0.7-1.9,0-2.6
		S54.2,79.3,53.5,80L53.5,80L53.5,80z M53.5,51.9l-7.4,7.4l-2.9-2.9c-0.7-0.7-1.9-0.7-2.6,0c-0.7,0.7-0.7,1.9,0,2.6l0,0l4.2,4.2
		c0.7,0.7,1.9,0.7,2.6,0l8.7-8.7c0.7-0.7,0.7-1.9,0-2.6S54.2,51.2,53.5,51.9L53.5,51.9z M53.5,23.7l-7.4,7.4l-2.9-2.9
		c-0.7-0.7-1.9-0.7-2.6,0c-0.7,0.7-0.7,1.9,0,2.6l4.2,4.2c0.7,0.7,1.9,0.7,2.6,0l8.7-8.7c0.7-0.6,0.8-1.7,0.2-2.4
		c0-0.1-0.1-0.1-0.2-0.2C55.3,23.1,54.2,23.1,53.5,23.7z M118.9,16.1v94.9c0,6-4.9,10.9-10.9,10.9c0,0,0,0,0,0H39.4
		c-6,0-10.9-4.9-10.9-10.9c0,0,0,0,0,0V16.1c0-6,4.9-10.9,10.9-10.9H108C114,5.2,118.8,10.1,118.9,16.1L118.9,16.1z M115.2,16.1
		c0-4-3.2-7.3-7.2-7.3c0,0,0,0,0,0H39.4c-4,0-7.3,3.2-7.3,7.2c0,0,0,0,0,0v94.9c0,4,3.2,7.3,7.2,7.3c0,0,0,0,0,0H108
		c4,0,7.3-3.2,7.3-7.2c0,0,0,0,0,0L115.2,16.1z"/>
</g>
</svg>
